<svg xmlns="http://www.w3.org/2000/svg" xmlns:xlink="http://www.w3.org/1999/xlink" width="500" zoomAndPan="magnify" viewBox="0 0 375 374.999991" height="500" preserveAspectRatio="xMidYMid meet" version="1.0"><defs><g/><clipPath id="68854b06ef"><path d="M 25.140625 9 L 349.890625 9 L 349.890625 299 L 25.140625 299 Z M 25.140625 9 " clip-rule="nonzero"/></clipPath></defs><g clip-path="url(#68854b06ef)"><path fill="#26d9fd" d="M 292.019531 103.417969 C 288.664062 102.257812 285.179688 101.164062 281.582031 100.128906 C 282.175781 97.71875 282.71875 95.34375 283.203125 93.007812 C 291.09375 54.644531 285.9375 23.738281 268.289062 13.566406 C 251.363281 3.808594 223.6875 13.980469 195.738281 38.300781 C 193.050781 40.640625 190.355469 43.113281 187.667969 45.710938 C 185.867188 43.992188 184.082031 42.335938 182.296875 40.746094 C 153 14.742188 123.640625 3.785156 106.011719 13.988281 C 89.105469 23.773438 84.097656 52.828125 91.214844 89.183594 C 91.902344 92.695312 92.703125 96.28125 93.613281 99.925781 C 89.457031 101.105469 85.445312 102.363281 81.609375 103.699219 C 47.265625 115.671875 25.335938 134.433594 25.335938 153.894531 C 25.335938 173.988281 48.878906 194.15625 84.648438 206.382812 C 87.46875 207.34375 90.398438 208.257812 93.417969 209.117188 C 92.4375 213.058594 91.585938 216.921875 90.871094 220.695312 C 84.085938 256.421875 89.382812 284.785156 106.242188 294.503906 C 123.660156 304.550781 152.886719 294.226562 181.34375 269.355469 C 183.601562 267.394531 185.855469 265.304688 188.109375 263.125 C 191.050781 265.9375 193.976562 268.609375 196.878906 271.117188 C 224.449219 294.832031 251.679688 304.410156 268.515625 294.667969 C 285.914062 284.597656 291.578125 254.117188 284.226562 217.046875 C 283.671875 214.210938 283.011719 211.324219 282.289062 208.382812 C 284.34375 207.773438 286.355469 207.140625 288.320312 206.496094 C 325.507812 194.167969 349.695312 174.265625 349.695312 153.894531 C 349.695312 134.363281 327.054688 115.476562 292.019531 103.417969 Z M 283.960938 193.347656 C 282.1875 193.929688 280.363281 194.5 278.515625 195.042969 C 274.410156 182.058594 268.871094 168.238281 262.082031 153.960938 C 268.554688 140.023438 273.875 126.386719 277.867188 113.476562 C 281.1875 114.4375 284.40625 115.449219 287.511719 116.515625 C 317.527344 126.847656 335.835938 142.128906 335.835938 153.894531 C 335.835938 166.425781 316.070312 182.703125 283.960938 193.347656 Z M 270.632812 219.734375 C 273.890625 236.128906 274.34375 250.949219 272.191406 262.542969 C 270.265625 272.953125 266.375 279.898438 261.574219 282.671875 C 251.347656 288.585938 229.492188 280.898438 205.925781 260.617188 C 203.214844 258.285156 200.488281 255.800781 197.765625 253.179688 C 206.902344 243.183594 216.035156 231.566406 224.957031 218.65625 C 240.628906 217.277344 255.441406 214.996094 268.882812 211.890625 C 269.542969 214.566406 270.125 217.175781 270.632812 219.734375 Z M 135.921875 281.644531 C 125.933594 285.179688 117.980469 285.28125 113.171875 282.507812 C 102.941406 276.601562 98.6875 253.824219 104.488281 223.28125 C 105.15625 219.785156 105.945312 216.1875 106.855469 212.511719 C 120.144531 215.453125 134.851562 217.566406 150.566406 218.835938 C 159.542969 231.464844 168.945312 243.070312 178.410156 253.230469 C 176.34375 255.230469 174.28125 257.132812 172.226562 258.917969 C 159.644531 269.925781 147.035156 277.730469 135.921875 281.644531 Z M 89.132812 193.269531 C 73.316406 187.859375 60.253906 180.84375 51.304688 173.164062 C 43.257812 166.285156 39.195312 159.445312 39.195312 153.894531 C 39.195312 142.089844 56.804688 127.019531 86.171875 116.785156 C 89.738281 115.539062 93.46875 114.371094 97.339844 113.269531 C 101.398438 126.472656 106.722656 140.277344 113.148438 154.226562 C 106.636719 168.390625 101.238281 182.414062 97.140625 195.777344 C 94.378906 194.980469 91.707031 194.144531 89.132812 193.269531 Z M 104.816406 86.523438 C 98.722656 55.375 102.769531 31.878906 112.957031 25.980469 C 123.808594 19.699219 147.804688 28.652344 173.089844 51.109375 C 174.710938 52.542969 176.332031 54.042969 177.96875 55.597656 C 168.539062 65.71875 159.226562 77.234375 150.332031 89.789062 C 135.074219 91.203125 120.472656 93.472656 107.046875 96.515625 C 106.203125 93.117188 105.457031 89.785156 104.816406 86.523438 Z M 244.722656 121.066406 C 241.519531 115.523438 238.222656 110.109375 234.867188 104.847656 C 245.21875 106.15625 255.125 107.890625 264.4375 110.015625 C 261.652344 118.972656 258.167969 128.339844 254.0625 137.945312 C 251.121094 132.355469 248.003906 126.726562 244.722656 121.066406 Z M 187.667969 65.5 C 194.066406 72.421875 200.464844 80.152344 206.761719 88.539062 C 200.414062 88.242188 193.992188 88.085938 187.515625 88.085938 C 181.105469 88.085938 174.730469 88.238281 168.421875 88.53125 C 174.71875 80.222656 181.179688 72.503906 187.667969 65.5 Z M 130.25 121.160156 C 127.042969 126.71875 123.988281 132.320312 121.09375 137.933594 C 117.058594 128.363281 113.605469 118.957031 110.785156 109.871094 C 120.039062 107.800781 129.910156 106.105469 140.191406 104.820312 C 136.785156 110.136719 133.464844 115.585938 130.25 121.160156 Z M 140.488281 203.949219 C 129.863281 202.769531 119.847656 201.164062 110.59375 199.148438 C 113.460938 189.898438 116.988281 180.296875 121.109375 170.515625 C 124.011719 176.128906 127.078125 181.730469 130.304688 187.304688 C 133.589844 192.976562 136.996094 198.527344 140.488281 203.949219 Z M 188.050781 243.257812 C 181.484375 236.179688 174.933594 228.335938 168.535156 219.910156 C 174.746094 220.152344 181.082031 220.277344 187.515625 220.277344 C 194.128906 220.277344 200.667969 220.128906 207.09375 219.847656 C 200.78125 228.425781 194.398438 236.28125 188.050781 243.257812 Z M 254.1875 170.023438 C 258.523438 179.90625 262.183594 189.457031 265.085938 198.550781 C 255.683594 200.695312 245.523438 202.417969 234.828125 203.707031 C 238.199219 198.375 241.519531 192.863281 244.785156 187.203125 C 248.09375 181.476562 251.222656 175.738281 254.1875 170.023438 Z M 232.773438 180.285156 C 227.707031 189.078125 222.5 197.464844 217.214844 205.382812 C 207.597656 206.066406 197.652344 206.417969 187.515625 206.417969 C 177.417969 206.417969 167.597656 206.117188 158.148438 205.496094 C 152.648438 197.476562 147.332031 189.0625 142.296875 180.359375 C 137.269531 171.683594 132.648438 162.929688 128.457031 154.226562 C 132.644531 145.507812 137.257812 136.742188 142.253906 128.082031 C 147.261719 119.398438 152.535156 111.023438 157.980469 103.046875 C 167.625 102.320312 177.519531 101.9375 187.515625 101.9375 C 197.5625 101.9375 207.460938 102.324219 217.101562 103.058594 C 222.472656 110.972656 227.707031 119.320312 232.738281 128.007812 C 237.816406 136.792969 242.492188 145.496094 246.710938 154.035156 C 242.507812 162.714844 237.84375 171.503906 232.773438 180.285156 Z M 261.359375 25.5625 C 272.230469 31.828125 276.449219 57.085938 269.621094 90.207031 C 269.191406 92.320312 268.695312 94.472656 268.164062 96.652344 C 254.707031 93.546875 240.097656 91.238281 224.804688 89.804688 C 215.886719 77.113281 206.648438 65.578125 197.375 55.589844 C 199.871094 53.191406 202.367188 50.90625 204.835938 48.746094 C 228.785156 27.910156 251.171875 19.683594 261.359375 25.5625 Z M 187.515625 124.929688 C 203.507812 124.929688 216.480469 137.890625 216.480469 153.890625 C 216.480469 169.878906 203.507812 182.851562 187.515625 182.851562 C 171.527344 182.851562 158.550781 169.878906 158.550781 153.890625 C 158.550781 137.890625 171.527344 124.929688 187.515625 124.929688 Z M 187.515625 124.929688 " fill-opacity="1" fill-rule="nonzero"/></g><g fill="#ffffff" fill-opacity="1"><g transform="translate(114.339841, 352.937468)"><g><path d="M 9.703125 -35.40625 L 30.203125 -6 L 30.296875 -6 L 30.296875 -35.40625 L 34.5 -35.40625 L 34.5 0 L 29.203125 0 L 8.703125 -29.40625 L 8.59375 -29.40625 L 8.59375 0 L 4.40625 0 L 4.40625 -35.40625 Z M 9.703125 -35.40625 "/></g></g></g><g fill="#ffffff" fill-opacity="1"><g transform="translate(153.233821, 352.937468)"><g><path d="M 12.703125 -24 C 16.097656 -24 18.570312 -23.195312 20.125 -21.59375 C 21.675781 -20 22.46875 -17.582031 22.5 -14.34375 L 22.5 -3.84375 C 22.5 -2.84375 22.613281 -1.5625 22.84375 0 L 19.09375 0 C 18.925781 -0.300781 18.84375 -1.46875 18.84375 -3.5 L 18.75 -3.5 C 16.976562 -0.832031 14.410156 0.53125 11.046875 0.59375 C 8.484375 0.59375 6.390625 -0.046875 4.765625 -1.328125 C 3.148438 -2.609375 2.34375 -4.28125 2.34375 -6.34375 C 2.34375 -9.175781 3.507812 -11.25 5.84375 -12.5625 C 8.175781 -13.882812 11.828125 -14.546875 16.796875 -14.546875 L 18.59375 -14.546875 L 18.59375 -15.203125 C 18.59375 -18.597656 16.660156 -20.332031 12.796875 -20.40625 C 9.992188 -20.40625 7.675781 -19.550781 5.84375 -17.84375 L 3.40625 -20.40625 C 5.800781 -22.738281 8.898438 -23.9375 12.703125 -24 Z M 6.546875 -6.75 C 6.546875 -4.113281 8.265625 -2.765625 11.703125 -2.703125 C 13.734375 -2.703125 15.390625 -3.347656 16.671875 -4.640625 C 17.953125 -5.941406 18.59375 -7.84375 18.59375 -10.34375 L 18.59375 -11.25 L 14.296875 -11.25 C 11.992188 -11.25 10.132812 -10.878906 8.71875 -10.140625 C 7.300781 -9.410156 6.578125 -8.28125 6.546875 -6.75 Z M 6.546875 -6.75 "/></g></g></g><g fill="#ffffff" fill-opacity="1"><g transform="translate(179.179807, 352.937468)"><g><path d="M 9.59375 -30.046875 L 9.59375 -23.40625 L 16.5 -23.40625 L 16.5 -20.09375 L 9.59375 -20.09375 L 9.59375 -7.59375 C 9.59375 -5.726562 9.894531 -4.492188 10.5 -3.890625 C 11.101562 -3.296875 11.96875 -3 13.09375 -3 C 14.394531 -3 15.546875 -3.265625 16.546875 -3.796875 L 16.703125 -0.25 C 15.367188 0.3125 13.851562 0.59375 12.15625 0.59375 C 9.75 0.59375 8.070312 0.00390625 7.125 -1.171875 C 6.175781 -2.359375 5.703125 -4.300781 5.703125 -7 L 5.703125 -20.09375 L 0.59375 -20.09375 L 0.59375 -23.40625 L 5.703125 -23.40625 L 5.703125 -30.046875 Z M 9.59375 -30.046875 "/></g></g></g><g fill="#ffffff" fill-opacity="1"><g transform="translate(196.777088, 352.937468)"><g><path d="M 6 -35.40625 C 6.769531 -35.40625 7.4375 -35.128906 8 -34.578125 C 8.5625 -34.023438 8.84375 -33.347656 8.84375 -32.546875 C 8.84375 -31.710938 8.578125 -31.03125 8.046875 -30.5 C 7.515625 -29.96875 6.832031 -29.703125 6 -29.703125 C 5.164062 -29.703125 4.484375 -29.96875 3.953125 -30.5 C 3.421875 -31.03125 3.15625 -31.710938 3.15625 -32.546875 C 3.15625 -33.347656 3.4375 -34.023438 4 -34.578125 C 4.5625 -35.128906 5.226562 -35.40625 6 -35.40625 Z M 7.953125 -23.40625 L 7.953125 0 L 4.046875 0 L 4.046875 -23.40625 Z M 7.953125 -23.40625 "/></g></g></g><g fill="#ffffff" fill-opacity="1"><g transform="translate(208.775233, 352.937468)"><g><path d="M 5.046875 -23.40625 L 12.34375 -5.046875 L 12.453125 -5.046875 L 19.40625 -23.40625 L 23.59375 -23.40625 L 14.34375 0 L 10.046875 0 L 0.5 -23.40625 Z M 5.046875 -23.40625 "/></g></g></g><g fill="#ffffff" fill-opacity="1"><g transform="translate(232.871499, 352.937468)"><g><path d="M 14.34375 -24 C 17.8125 -24 20.519531 -22.90625 22.46875 -20.71875 C 24.425781 -18.539062 25.421875 -15.453125 25.453125 -11.453125 L 25.453125 -10.5 L 6.546875 -10.5 C 6.742188 -8.332031 7.5625 -6.546875 9 -5.140625 C 10.4375 -3.742188 12.1875 -3.03125 14.25 -3 C 17.414062 -3 19.882812 -4.179688 21.65625 -6.546875 L 24.59375 -4.25 C 23.363281 -2.644531 21.914062 -1.4375 20.25 -0.625 C 18.582031 0.1875 16.582031 0.59375 14.25 0.59375 C 10.6875 0.59375 7.820312 -0.5625 5.65625 -2.875 C 3.488281 -5.1875 2.382812 -8.128906 2.34375 -11.703125 C 2.34375 -15.234375 3.453125 -18.148438 5.671875 -20.453125 C 7.890625 -22.753906 10.78125 -23.9375 14.34375 -24 Z M 21.25 -13.796875 C 21.144531 -15.828125 20.484375 -17.4375 19.265625 -18.625 C 18.054688 -19.8125 16.351562 -20.40625 14.15625 -20.40625 C 12.15625 -20.40625 10.46875 -19.835938 9.09375 -18.703125 C 7.726562 -17.566406 6.878906 -15.929688 6.546875 -13.796875 Z M 21.25 -13.796875 "/></g></g></g></svg>